<mxfile host="app.diagrams.net" agent="Mozilla/5.0 (Windows NT 10.0; Win64; x64) AppleWebKit/537.36 (KHTML, like Gecko) Chrome/131.0.0.0 Safari/537.36" version="24.7.17">
  <diagram name="Strona-1" id="_0fNa61KOb66mq4pyeOe">
    <mxGraphModel dx="1366" dy="735" grid="1" gridSize="10" guides="1" tooltips="1" connect="1" arrows="1" fold="1" page="1" pageScale="1" pageWidth="827" pageHeight="1169" math="0" shadow="0">
      <root>
        <mxCell id="0" />
        <mxCell id="1" parent="0" />
        <mxCell id="6lItWXWM8KRdjIrS7Q5L-14" style="edgeStyle=orthogonalEdgeStyle;rounded=0;orthogonalLoop=1;jettySize=auto;html=1;exitX=0.5;exitY=0;exitDx=0;exitDy=0;entryX=0.5;entryY=1;entryDx=0;entryDy=0;endArrow=none;endFill=0;dashed=1;dashPattern=1 2;" edge="1" parent="1" source="6lItWXWM8KRdjIrS7Q5L-1" target="6lItWXWM8KRdjIrS7Q5L-11">
          <mxGeometry relative="1" as="geometry" />
        </mxCell>
        <mxCell id="6lItWXWM8KRdjIrS7Q5L-1" value="&lt;b&gt;QueueTask&lt;/b&gt;&lt;br&gt;id: String&lt;br&gt;queueName: String&lt;br&gt;taskPayload: Object&lt;br&gt;status: QueueTaskStatus&lt;br&gt;creationDate: Date&lt;br&gt;expirationDate: Date" style="rounded=0;whiteSpace=wrap;html=1;" vertex="1" parent="1">
          <mxGeometry x="80" y="180" width="210" height="120" as="geometry" />
        </mxCell>
        <mxCell id="6lItWXWM8KRdjIrS7Q5L-37" style="edgeStyle=orthogonalEdgeStyle;rounded=0;orthogonalLoop=1;jettySize=auto;html=1;entryX=0.5;entryY=0;entryDx=0;entryDy=0;dashed=1;endArrow=none;endFill=0;" edge="1" parent="1" source="6lItWXWM8KRdjIrS7Q5L-2" target="6lItWXWM8KRdjIrS7Q5L-13">
          <mxGeometry relative="1" as="geometry" />
        </mxCell>
        <mxCell id="6lItWXWM8KRdjIrS7Q5L-2" value="&lt;b&gt;EbookFile&lt;/b&gt;&lt;br&gt;id: String&lt;br&gt;&lt;u&gt;ownerUserId: String&lt;br&gt;&lt;/u&gt;name: String&lt;br&gt;author: String&lt;br&gt;description: String&lt;br&gt;containerName: String&lt;br&gt;coverImageKey: String&lt;br&gt;tags: String[]&lt;br&gt;creationDate: Date&lt;br&gt;isPublic: bool&lt;br&gt;conversionSourceFormat: EbookFormat&lt;br&gt;editLock: EbookFileLock&lt;br&gt;downloadableFiles: EbookDownloadableResource[]&lt;br&gt;totalSizeBytes: long" style="rounded=0;whiteSpace=wrap;html=1;" vertex="1" parent="1">
          <mxGeometry x="360" y="20" width="210" height="460" as="geometry" />
        </mxCell>
        <mxCell id="6lItWXWM8KRdjIrS7Q5L-38" style="edgeStyle=orthogonalEdgeStyle;rounded=0;orthogonalLoop=1;jettySize=auto;html=1;entryX=0.5;entryY=0;entryDx=0;entryDy=0;endArrow=none;endFill=0;dashed=1;" edge="1" parent="1" source="6lItWXWM8KRdjIrS7Q5L-5" target="6lItWXWM8KRdjIrS7Q5L-12">
          <mxGeometry relative="1" as="geometry" />
        </mxCell>
        <mxCell id="6lItWXWM8KRdjIrS7Q5L-5" value="&lt;b&gt;EbookProject&lt;/b&gt;&lt;br&gt;id: String&lt;br&gt;&lt;u&gt;ownerUserId: String&lt;br&gt;&lt;/u&gt;name: String&lt;br&gt;author: String&lt;br&gt;description: String&lt;br&gt;containerName: String&lt;br&gt;coverImageKey: String&lt;br&gt;tags: String[]&lt;br&gt;creationDate: Date&lt;br&gt;isPublic: bool&lt;br&gt;lock: EbookFileLock&lt;br&gt;illustrations: EbookProjectIllustration&lt;br&gt;downloadableFiles: EbookDownloadableResource[]&lt;br&gt;chapters: EbookProjectChapter[]&lt;br&gt;totalSizeBytes: long" style="rounded=0;whiteSpace=wrap;html=1;" vertex="1" parent="1">
          <mxGeometry x="610" y="20" width="250" height="460" as="geometry" />
        </mxCell>
        <mxCell id="6lItWXWM8KRdjIrS7Q5L-8" value="&lt;b&gt;EbookFileBookmark&lt;/b&gt;&lt;br&gt;id: String&lt;br&gt;&lt;u&gt;ebookFileId: String&lt;br&gt;userId: String&lt;br&gt;&lt;/u&gt;bookmarkedPages: long[]" style="rounded=0;whiteSpace=wrap;html=1;" vertex="1" parent="1">
          <mxGeometry x="80" y="340" width="210" height="140" as="geometry" />
        </mxCell>
        <mxCell id="6lItWXWM8KRdjIrS7Q5L-11" value="&lt;b&gt;QueueTaskStatus&lt;/b&gt;&lt;br&gt;enum:&lt;br&gt;IN_QUEUE,&lt;br&gt;IN_PROGRESS,&lt;br&gt;COMPLETED,&lt;br&gt;FAILED,&lt;br&gt;ABORTED,&lt;br&gt;NOT_FOUND" style="rounded=0;whiteSpace=wrap;html=1;dashed=1;dashPattern=1 2;" vertex="1" parent="1">
          <mxGeometry x="80" y="20" width="210" height="120" as="geometry" />
        </mxCell>
        <mxCell id="6lItWXWM8KRdjIrS7Q5L-12" value="&lt;b&gt;EbookFileLock&lt;/b&gt;&lt;br&gt;isLocked: Boolean&lt;br&gt;lockExpirationDate: Date" style="rounded=0;whiteSpace=wrap;html=1;dashed=1;" vertex="1" parent="1">
          <mxGeometry x="610" y="520" width="250" height="150" as="geometry" />
        </mxCell>
        <mxCell id="6lItWXWM8KRdjIrS7Q5L-13" value="&lt;b&gt;EbookDownloadableResource&lt;/b&gt;&lt;br&gt;stub: String&lt;br&gt;format: EbookFormat&lt;br&gt;creationDate: Date&lt;br&gt;fileKey: String" style="rounded=0;whiteSpace=wrap;html=1;dashed=1;" vertex="1" parent="1">
          <mxGeometry x="360" y="520" width="210" height="150" as="geometry" />
        </mxCell>
        <mxCell id="6lItWXWM8KRdjIrS7Q5L-22" value="&lt;b&gt;EbookProjectIllustration&lt;/b&gt;&lt;br&gt;stub: String&lt;br&gt;fileKey: String" style="rounded=0;whiteSpace=wrap;html=1;dashed=1;" vertex="1" parent="1">
          <mxGeometry x="910" y="20" width="190" height="220" as="geometry" />
        </mxCell>
        <mxCell id="6lItWXWM8KRdjIrS7Q5L-26" value="&lt;b&gt;EbookProjectChapter&lt;/b&gt;&lt;div&gt;id: String&lt;br&gt;name: String&lt;br&gt;contentHtml: String&lt;br&gt;creationDate: String&lt;br&gt;lastModifiedDate: String&lt;/div&gt;" style="rounded=0;whiteSpace=wrap;html=1;dashed=1;" vertex="1" parent="1">
          <mxGeometry x="910" y="270" width="190" height="210" as="geometry" />
        </mxCell>
        <mxCell id="6lItWXWM8KRdjIrS7Q5L-30" style="edgeStyle=orthogonalEdgeStyle;rounded=0;orthogonalLoop=1;jettySize=auto;html=1;entryX=0;entryY=0.5;entryDx=0;entryDy=0;endArrow=none;endFill=0;dashed=1;dashPattern=1 4;" edge="1" parent="1" source="6lItWXWM8KRdjIrS7Q5L-27" target="6lItWXWM8KRdjIrS7Q5L-13">
          <mxGeometry relative="1" as="geometry" />
        </mxCell>
        <mxCell id="6lItWXWM8KRdjIrS7Q5L-27" value="&lt;b&gt;EbookFormat&lt;/b&gt;&lt;br&gt;enum:&lt;br&gt;&lt;div&gt;EPUB,&lt;br&gt;MOBI,&lt;br&gt;AZW3,&lt;br&gt;PDF,&lt;br&gt;TXT,&lt;br&gt;HTML,&lt;br&gt;DOCX&lt;/div&gt;" style="rounded=0;whiteSpace=wrap;html=1;dashed=1;dashPattern=1 2;" vertex="1" parent="1">
          <mxGeometry x="80" y="520" width="210" height="150" as="geometry" />
        </mxCell>
        <mxCell id="6lItWXWM8KRdjIrS7Q5L-32" value="" style="endArrow=none;html=1;rounded=0;exitX=1;exitY=0.25;exitDx=0;exitDy=0;entryX=-0.004;entryY=0.869;entryDx=0;entryDy=0;dashed=1;dashPattern=1 4;entryPerimeter=0;" edge="1" parent="1" source="6lItWXWM8KRdjIrS7Q5L-27" target="6lItWXWM8KRdjIrS7Q5L-2">
          <mxGeometry width="50" height="50" relative="1" as="geometry">
            <mxPoint x="320" y="570" as="sourcePoint" />
            <mxPoint x="370" y="520" as="targetPoint" />
            <Array as="points">
              <mxPoint x="320" y="558" />
              <mxPoint x="320" y="420" />
            </Array>
          </mxGeometry>
        </mxCell>
        <mxCell id="6lItWXWM8KRdjIrS7Q5L-35" value="" style="endArrow=none;html=1;rounded=0;exitX=0.998;exitY=0.222;exitDx=0;exitDy=0;exitPerimeter=0;entryX=-0.008;entryY=0.466;entryDx=0;entryDy=0;entryPerimeter=0;dashed=1;" edge="1" parent="1" source="6lItWXWM8KRdjIrS7Q5L-5" target="6lItWXWM8KRdjIrS7Q5L-22">
          <mxGeometry width="50" height="50" relative="1" as="geometry">
            <mxPoint x="870" y="230" as="sourcePoint" />
            <mxPoint x="920" y="180" as="targetPoint" />
          </mxGeometry>
        </mxCell>
        <mxCell id="6lItWXWM8KRdjIrS7Q5L-36" style="edgeStyle=orthogonalEdgeStyle;rounded=0;orthogonalLoop=1;jettySize=auto;html=1;exitX=0;exitY=0.5;exitDx=0;exitDy=0;dashed=1;endArrow=none;endFill=0;" edge="1" parent="1" source="6lItWXWM8KRdjIrS7Q5L-26">
          <mxGeometry relative="1" as="geometry">
            <mxPoint x="860" y="376" as="targetPoint" />
            <Array as="points">
              <mxPoint x="860" y="375" />
            </Array>
          </mxGeometry>
        </mxCell>
      </root>
    </mxGraphModel>
  </diagram>
</mxfile>
